<?xml version="1.0" standalone="no"?>
<!DOCTYPE svg PUBLIC "-//W3C//DTD SVG 20010904//EN"
 "http://www.w3.org/TR/2001/REC-SVG-20010904/DTD/svg10.dtd">
<svg version="1.0" xmlns="http://www.w3.org/2000/svg"
 width="329.000000pt" height="503.000000pt" viewBox="0 0 329.000000 503.000000"
 preserveAspectRatio="xMidYMid meet">

<g transform="translate(0.000000,503.000000) scale(0.100000,-0.100000)"
fill="#a252c8" stroke="#a252c8">
<path d="M667 4905 c-228 -46 -435 -249 -504 -495 -17 -62 -18 -153 -18 -1840
0 -1472 2 -1784 14 -1830 33 -133 117 -260 241 -366 80 -68 159 -109 258 -135
71 -18 118 -19 926 -19 818 0 854 1 921 20 132 37 210 85 321 195 113 112 155
181 180 293 15 66 15 75 -1 122 -24 72 -70 105 -145 105 -76 0 -120 -33 -149
-110 -39 -103 -70 -152 -132 -209 -71 -64 -130 -90 -243 -105 -49 -7 -333 -11
-784 -11 -580 0 -719 3 -776 15 -123 26 -217 98 -271 208 l-35 72 2 1760 3
1760 27 56 c33 69 111 150 181 187 l52 27 865 0 865 0 55 -28 c117 -61 168
-121 209 -248 33 -100 100 -148 178 -127 66 17 123 110 123 198 0 143 -169
359 -351 447 -151 73 -148 73 -1104 72 -661 -1 -854 -4 -908 -14z"/>
<path d="M882 4090 c-39 -16 -75 -49 -99 -88 l-23 -37 0 -1319 0 -1320 21 -44
c39 -79 134 -121 200 -87 47 24 68 44 90 87 17 34 18 70 19 574 1 523 2 537
20 518 10 -10 82 -104 159 -209 320 -431 359 -483 436 -564 163 -172 312 -278
455 -322 65 -21 96 -24 235 -24 140 0 169 3 235 23 202 64 368 201 457 379 63
128 47 251 -41 304 -58 35 -153 17 -196 -38 -10 -13 -30 -55 -45 -92 -14 -38
-41 -86 -60 -109 -75 -86 -238 -162 -351 -162 -71 0 -177 37 -251 88 -67 46
-213 193 -300 302 -33 41 -104 131 -159 199 -163 203 -194 262 -194 365 0 64
32 120 190 336 62 85 129 178 148 205 83 119 109 154 161 215 124 146 194 210
266 246 156 76 331 48 476 -76 34 -29 54 -58 75 -107 37 -90 57 -117 98 -137
76 -36 150 -8 196 74 19 36 24 60 25 115 0 62 -4 77 -34 128 -70 122 -204 240
-337 296 -192 82 -465 82 -649 0 -123 -55 -282 -184 -388 -314 -51 -64 -328
-456 -398 -565 -41 -63 -106 -163 -145 -223 l-71 -108 -6 128 c-4 70 -7 382
-7 692 0 562 0 565 -22 596 -43 63 -131 98 -186 75z"/>
</g>
</svg>
